<svg xmlns="http://www.w3.org/2000/svg" width="42.159" height="42.15" viewBox="0 0 42.159 42.15">
  <path id="instagram-brands" d="M21.009,42.093A10.807,10.807,0,1,0,31.816,52.9,10.79,10.79,0,0,0,21.009,42.093Zm0,17.833A7.026,7.026,0,1,1,28.035,52.9,7.039,7.039,0,0,1,21.009,59.926ZM34.779,41.651a2.521,2.521,0,1,1-2.521-2.521A2.515,2.515,0,0,1,34.779,41.651Zm7.157,2.558c-.16-3.377-.931-6.367-3.4-8.832s-5.455-3.235-8.832-3.4c-3.48-.2-13.91-.2-17.39,0-3.367.16-6.358.931-8.832,3.4S.242,40.824.073,44.2c-.2,3.48-.2,13.91,0,17.39.16,3.377.931,6.367,3.4,8.832s5.455,3.235,8.832,3.4c3.48.2,13.91.2,17.39,0,3.377-.16,6.367-.931,8.832-3.4s3.235-5.455,3.4-8.832C42.134,58.111,42.134,47.689,41.936,44.209Zm-4.5,21.115a7.113,7.113,0,0,1-4.007,4.007c-2.775,1.1-9.358.846-12.424.846s-9.659.245-12.424-.846a7.113,7.113,0,0,1-4.007-4.007c-1.1-2.775-.846-9.358-.846-12.424s-.245-9.659.846-12.424a7.113,7.113,0,0,1,4.007-4.007c2.775-1.1,9.358-.846,12.424-.846s9.659-.245,12.424.846a7.113,7.113,0,0,1,4.007,4.007c1.1,2.775.846,9.358.846,12.424S38.541,62.559,37.441,65.324Z" transform="translate(0.075 -31.825)" fill="#9da6ad"/>
</svg>
