<svg xmlns="http://www.w3.org/2000/svg" width="46.15" height="46.15" viewBox="0 0 46.15 46.15">
  <path id="whatsapp-brands" d="M39.238,38.706A22.876,22.876,0,0,0,3.245,66.3L0,78.15l12.125-3.183a22.8,22.8,0,0,0,10.93,2.781h.01A22.724,22.724,0,0,0,39.238,38.706ZM23.065,73.9a18.974,18.974,0,0,1-9.683-2.647l-.69-.412L5.5,72.721l1.916-7.015-.453-.721A19.045,19.045,0,1,1,42.287,54.879,19.22,19.22,0,0,1,23.065,73.9ZM33.49,59.659c-.567-.288-3.379-1.669-3.9-1.854s-.907-.288-1.288.288-1.473,1.854-1.813,2.246-.67.433-1.236.144c-3.358-1.679-5.563-3-7.778-6.8-.587-1.01.587-.937,1.679-3.121a1.059,1.059,0,0,0-.052-1c-.144-.288-1.288-3.1-1.762-4.244-.464-1.113-.937-.958-1.288-.979-.33-.021-.711-.021-1.092-.021a2.117,2.117,0,0,0-1.525.711,6.421,6.421,0,0,0-2,4.77c0,2.812,2.05,5.532,2.328,5.913s4.028,6.15,9.766,8.633c3.626,1.566,5.048,1.7,6.861,1.432,1.1-.165,3.379-1.38,3.853-2.72a4.779,4.779,0,0,0,.33-2.72C34.437,60.081,34.056,59.937,33.49,59.659Z" transform="translate(0 -32)" fill="#9da6ad"/>
</svg>
